<svg width="36" height="36" viewBox="0 0 36 36" fill="none" xmlns="http://www.w3.org/2000/svg">
<path fill-rule="evenodd" clip-rule="evenodd" d="M27.2629 8.63442L35.6156 16.9871C36.1281 17.4997 36.1281 18.3307 35.6156 18.8433L27.2629 27.196C26.7503 27.7085 25.9193 27.7085 25.4067 27.196C24.8942 26.6834 24.8942 25.8524 25.4067 25.3398L31.5188 19.2277H11.0625C10.3376 19.2277 9.75 18.6401 9.75 17.9152C9.75 17.1903 10.3376 16.6027 11.0625 16.6027H31.5188L25.4067 10.4906C24.8942 9.97801 24.8942 9.14699 25.4067 8.63442C25.9193 8.12186 26.7503 8.12186 27.2629 8.63442Z" fill="white"/>
<path d="M3.75 0C1.67893 0 0 1.67893 0 3.75V32.25C0 34.3211 1.67893 36 3.75 36H22.5C24.5711 36 26.25 34.3211 26.25 32.25V29.0791C25.5587 29.0584 24.8737 28.7842 24.3461 28.2566C23.2477 27.1583 23.2477 25.3775 24.3461 24.2792L26.25 22.3752V20.7277H11.0625C9.50919 20.7277 8.25 19.4685 8.25 17.9152C8.25 16.3619 9.50919 15.1027 11.0625 15.1027H26.25V13.4552L24.3461 11.5512C23.2477 10.4529 23.2477 8.67212 24.3461 7.57376C24.8737 7.04615 25.5587 6.772 26.25 6.75127V3.75C26.25 1.67893 24.5711 0 22.5 0H3.75Z" fill="white"/>
</svg>
